<svg aria-hidden="true" style="position: absolute; width: 0; height: 0; overflow: hidden;" version="1.1" xmlns="http://www.w3.org/2000/svg" xmlns:xlink="http://www.w3.org/1999/xlink">
<defs>
<symbol id="icon-footer-leaf" viewBox="0 0 32 32">
<path d="M24.204 8.035c-1.628-2.758-3.939-5.050-6.71-6.655l-0.493-0.285-0.493 0.285c-2.819 1.627-5.159 3.967-6.786 6.785s-2.483 6.015-2.481 9.27c0 0.212 0.004 0.427 0.011 0.64 0.098 2.883 1.201 5.31 3.189 7.017 1.521 1.306 3.473 2.103 5.576 2.294v3.401h1.969v-15.754h-1.969v10.371c-3.327-0.385-6.638-2.736-6.797-7.395-0.007-0.19-0.010-0.383-0.010-0.573 0.006-2.81 0.723-5.572 2.086-8.030s3.325-4.53 5.705-6.024c2.38 1.494 4.343 3.566 5.705 6.024s2.080 5.22 2.086 8.030c0 0.19-0.003 0.383-0.010 0.573-0.127 3.728-2.271 5.977-4.827 6.925v2.084c1.326-0.376 2.556-1.033 3.607-1.926 1.988-1.707 3.091-4.133 3.189-7.016 0.007-0.213 0.011-0.428 0.011-0.64 0.002-3.305-0.881-6.551-2.557-9.399v0z"></path>
</symbol>
<symbol id="icon-icon-comment" viewBox="0 0 32 32">
<path d="M9 13c-1.106 0-2 0.887-2 1.944 0 1.163 0.894 2.056 2 2.056s1.944-0.891 1.944-2-0.831-2-1.944-2zM16 12.944c-1.109 0-1.944 0.891-1.944 2s0.891 1.944 1.944 1.944 1.944-0.891 1.944-1.944c0-1.053-0.831-2-1.944-2zM23 13c-1.109 0-1.944 0.891-1.944 2s0.891 2 1.944 2c1.109 0 1.999-0.891 1.999-2 0.001-1.113-0.887-2-1.999-2zM16 1.944c-8.838 0-15.944 5.82-15.944 13 0 2.976 1.244 5.703 3.307 7.894-0.929 2.469-2.867 4.555-2.898 4.578-0.414 0.438-0.523 1.078-0.289 1.625 0.188 0.597 0.723 0.959 1.324 0.959 3.843 0 6.819-1.609 8.694-2.891 1.804 0.563 3.76 0.891 5.806 0.891 8.838 0 15.944-5.821 15.944-12.944s-7.106-13.112-15.944-13.112zM16 25c-1.672 0-3.32-0.258-4.898-0.758l-1.422-0.445-1.218 0.859c-0.891 0.633-2.117 1.336-3.593 1.813 0.461-0.758 0.898-1.609 1.242-2.516l0.664-1.75-1.289-1.367c-1.123-1.205-2.482-3.199-2.482-5.836 0-5.516 5.827-10 12.944-10s12.944 4.484 12.944 10c0 5.516-5.716 10-12.891 10z"></path>
</symbol>
<symbol id="icon-facebook" viewBox="0 0 32 32">
<path d="M0 16.089c0 7.955 5.777 14.569 13.333 15.911v-11.556h-4v-4.444h4v-3.556c0-4 2.577-6.221 6.223-6.221 1.155 0 2.4 0.177 3.555 0.355v4.089h-2.044c-1.956 0-2.4 0.977-2.4 2.223v3.111h4.267l-0.711 4.444h-3.556v11.556c7.556-1.341 13.333-7.955 13.333-15.911 0-8.849-7.2-16.089-16-16.089s-16 7.24-16 16.089z"></path>
</symbol>
<symbol id="icon-instagram" viewBox="0 0 32 32">
<path d="M16 11.834c-2.294 0-4.166 1.872-4.166 4.166s1.872 4.166 4.166 4.166 4.166-1.872 4.166-4.166c0-2.294-1.872-4.166-4.166-4.166zM28.494 16c0-1.725 0.016-3.434-0.081-5.156-0.097-2-0.553-3.775-2.016-5.238-1.466-1.466-3.238-1.919-5.238-2.016-1.725-0.097-3.434-0.081-5.156-0.081-1.725 0-3.434-0.016-5.156 0.081-2 0.097-3.775 0.553-5.237 2.016-1.466 1.466-1.919 3.238-2.016 5.238-0.097 1.725-0.081 3.434-0.081 5.156s-0.016 3.434 0.081 5.156c0.097 2 0.553 3.775 2.016 5.238 1.466 1.466 3.237 1.919 5.237 2.016 1.725 0.097 3.434 0.081 5.156 0.081 1.725 0 3.434 0.016 5.156-0.081 2-0.097 3.775-0.553 5.238-2.016 1.466-1.466 1.919-3.238 2.016-5.238 0.1-1.722 0.081-3.431 0.081-5.156zM16 22.409c-3.547 0-6.409-2.862-6.409-6.409s2.863-6.409 6.409-6.409 6.409 2.862 6.409 6.409c0 3.547-2.862 6.409-6.409 6.409zM22.672 10.825c-0.828 0-1.497-0.669-1.497-1.497s0.669-1.497 1.497-1.497c0.828 0 1.497 0.669 1.497 1.497 0 0.197-0.038 0.391-0.113 0.573s-0.185 0.347-0.324 0.486c-0.139 0.139-0.304 0.249-0.486 0.324s-0.376 0.114-0.573 0.113z"></path>
</symbol>
<symbol id="icon-telegram" viewBox="0 0 32 32">
<path d="M32 16c0 4.243-1.686 8.313-4.686 11.314s-7.070 4.686-11.314 4.686-8.313-1.686-11.314-4.686c-3.001-3.001-4.686-7.070-4.686-11.314s1.686-8.313 4.686-11.314c3.001-3.001 7.070-4.686 11.314-4.686s8.313 1.686 11.314 4.686c3.001 3.001 4.686 7.070 4.686 11.314zM16.574 11.812c-1.556 0.648-4.668 1.988-9.332 4.020-0.756 0.3-1.154 0.596-1.19 0.884-0.060 0.486 0.55 0.678 1.38 0.94l0.35 0.11c0.816 0.266 1.916 0.576 2.486 0.588 0.52 0.012 1.098-0.2 1.736-0.64 4.358-2.942 6.608-4.428 6.748-4.46 0.1-0.024 0.24-0.052 0.332 0.032 0.094 0.082 0.084 0.24 0.074 0.282-0.060 0.258-2.454 2.482-3.692 3.634-0.386 0.36-0.66 0.614-0.716 0.672-0.123 0.126-0.249 0.25-0.376 0.372-0.76 0.732-1.328 1.28 0.030 2.176 0.654 0.432 1.178 0.786 1.7 1.142 0.568 0.388 1.136 0.774 1.872 1.258 0.186 0.12 0.366 0.25 0.54 0.374 0.662 0.472 1.26 0.896 1.994 0.828 0.428-0.040 0.87-0.44 1.094-1.64 0.53-2.834 1.572-8.972 1.812-11.502 0.015-0.21 0.006-0.422-0.026-0.63-0.019-0.168-0.1-0.323-0.228-0.434-0.182-0.126-0.399-0.191-0.62-0.186-0.6 0.010-1.526 0.332-5.968 2.18z"></path>
</symbol>
<symbol id="icon-whatsapp" viewBox="0 0 32 32">
<path d="M26.88 9.12c-3.84-5.92-11.68-7.68-17.76-4-5.92 3.68-7.84 11.68-4 17.6l0.32 0.48-1.28 4.8 4.8-1.28 0.48 0.32c2.080 1.12 4.32 1.76 6.56 1.76 2.4 0 4.8-0.64 6.88-1.92 5.92-3.84 7.68-11.68 4-17.76zM23.52 21.44c-0.64 0.96-1.44 1.6-2.56 1.76-0.64 0-1.44 0.32-4.64-0.96-2.72-1.28-4.96-3.36-6.56-5.76-0.96-1.12-1.44-2.56-1.6-4 0-1.28 0.48-2.4 1.28-3.2 0.32-0.32 0.64-0.48 0.96-0.48h0.8c0.32 0 0.64 0 0.8 0.64 0.32 0.8 1.12 2.72 1.12 2.88 0.16 0.16 0.16 0.48 0 0.64 0.16 0.32 0 0.64-0.16 0.8s-0.32 0.48-0.48 0.64c-0.32 0.16-0.48 0.48-0.32 0.8 0.64 0.96 1.44 1.92 2.24 2.72 0.96 0.8 1.92 1.44 3.040 1.92 0.32 0.16 0.64 0.16 0.8-0.16s0.96-1.12 1.28-1.44c0.32-0.32 0.48-0.32 0.8-0.16l2.56 1.28c0.32 0.16 0.64 0.32 0.8 0.48 0.16 0.48 0.16 1.12-0.16 1.6z"></path>
</symbol>
<symbol id="icon-user" viewBox="0 0 32 32">
<path d="M16 29c-7.18 0-13-5.82-13-13s5.82-13 13-13c7.18 0 13 5.82 13 13v0c0 7.18-5.82 13-13 13v0zM16 5c-6.075 0-11 4.925-11 11s4.925 11 11 11c6.075 0 11-4.925 11-11v0c0-6.075-4.925-11-11-11v0z"></path>
<path d="M16 17c-2.761 0-5-2.239-5-5s2.239-5 5-5c2.761 0 5 2.239 5 5v0c0 2.761-2.239 5-5 5v0zM16 9c-1.657 0-3 1.343-3 3s1.343 3 3 3c1.657 0 3-1.343 3-3v0c0-1.657-1.343-3-3-3v0z"></path>
<path d="M25.55 24c-0.002 0-0.004 0-0.007 0-0.289 0-0.55-0.123-0.733-0.319l-0.001-0.001c-2.078-2.261-5.049-3.675-8.349-3.68h-0.921c-0.007-0-0.016-0-0.024-0-3.041 0-5.801 1.205-7.829 3.163l0.003-0.003c-0.171 0.142-0.394 0.229-0.636 0.229-0.552 0-1-0.448-1-1 0-0.258 0.097-0.492 0.257-0.67l-0.001 0.001c2.379-2.302 5.625-3.72 9.201-3.72 0.010 0 0.020 0 0.030 0h0.918c3.88 0.009 7.372 1.667 9.812 4.311l0.008 0.009c0.165 0.178 0.267 0.417 0.267 0.68 0 0.551-0.446 0.998-0.997 1h-0z"></path>
</symbol>
</defs>
</svg>
